<svg xmlns="http://www.w3.org/2000/svg" width="123" height="71" viewBox="0 0 123 71">
  <g id="Grupo_1" data-name="Grupo 1" transform="translate(-60 -104)">
    <g id="NOVA-LOGO" transform="translate(-24 -20.191)">
      <text id="PH" transform="translate(84 163.191)" fill="#fff" font-size="43" font-family="BebasNeue-Regular, Bebas Neue"><tspan x="0" y="0">PH</tspan></text>
      <g id="logo" transform="translate(115.452 130.033)">
        <g id="phoenix-sky-harbor">
          <path id="Caminho_2" data-name="Caminho 2" d="M236.885,318.131a9.34,9.34,0,0,0-4.215,4.8,8.3,8.3,0,0,0,.659,7.4c.56,1.033,2.733,2.632,4.116,3.464a3.812,3.812,0,0,1-2.568-.367,8.048,8.048,0,0,1-4.874-6,8.94,8.94,0,0,1,1.976-6.263,9.454,9.454,0,0,1,4.907-3.031Zm18.769,4.7a18.524,18.524,0,0,0-9.022-5.03v.07a18.012,18.012,0,0,1,6.754,4.964c1.712,2,3.293,7.129,2.634,9.628q-.188-1.195-.494-2.366a12.717,12.717,0,0,0-3.952-7.229,7.769,7.769,0,0,0-1.844-1.3,15.057,15.057,0,0,1,3.622,6.53,7.991,7.991,0,0,1-3.293,8.5,3.584,3.584,0,0,1-1.778.7,7.711,7.711,0,0,0,1.284-3.865c.231-1.9-.3-3.835-.329-5.663.231-.966,1.778-1.464,1.778-1.464a14.272,14.272,0,0,1-2.766-.833c-.2-.133-2.766-1.666-4.116-2.6a4.725,4.725,0,0,0-3.1-1.2c-1.021.133-1.284,1.266-1.646,2.066a5.3,5.3,0,0,0-4.347,2.5,3.829,3.829,0,0,0-.4,2.265,6.1,6.1,0,0,1,1.976-1.6,3.818,3.818,0,0,1,3.715.713,3.923,3.923,0,0,1,1.323,3.584,5.183,5.183,0,0,1-3.82,4,8.069,8.069,0,0,1-7.574-3.531,9.229,9.229,0,0,1-1.516-7.46,7.543,7.543,0,0,0-1.416,4.064,15.017,15.017,0,0,0,.395,4.631c1.021,4.631,5.2,7.829,5.268,8a10.259,10.259,0,0,1-6.783-7.7c-.2-.833-.4-1.632-.527-2.432a15.531,15.531,0,0,0-.3,6.1A17.2,17.2,0,0,0,229.7,345.6a16.362,16.362,0,0,0,4.775,3.331c6.915,3.1,13.7-.8,13.7-.8a20.359,20.359,0,0,0,2.4-1.266,13.118,13.118,0,0,1-6.026,3.665,16.156,16.156,0,0,1-6.586.433,27.615,27.615,0,0,1-2.894-.433,12.037,12.037,0,0,0,5.2,1.832c7.409,1.3,13.6-4.264,13.6-4.264a18.266,18.266,0,0,0,5.858-9.228,17.8,17.8,0,0,0-4.083-16.025Zm-14.454,1.03a.43.43,0,0,1-.132-.533.849.849,0,0,1,.955-.167,1.97,1.97,0,0,1,1.12,1.066,3.544,3.544,0,0,1,.2.633,5.986,5.986,0,0,0-2.14-1Z" transform="translate(-225.221 -317.798)" fill="#df921e" fill-rule="evenodd"/>
        </g>
      </g>
      <text id="ENIX" transform="translate(147 163.191)" fill="#fff" font-size="43" font-family="BebasNeue-Regular, Bebas Neue"><tspan x="0" y="0">ENIX</tspan></text>
      <text id="info" transform="translate(155 186.191)" fill="#fff" font-size="29" font-family="BebasNeue-Regular, Bebas Neue"><tspan x="0" y="0">info</tspan></text>
      <text id="_." data-name="." transform="translate(147 186.191)" fill="#fff" font-size="29" font-family="BebasNeue-Regular, Bebas Neue"><tspan x="0" y="0">.</tspan></text>
    </g>
  </g>
</svg>
