<svg xmlns="http://www.w3.org/2000/svg" width="484.596" height="92.019" viewBox="0 0 484.596 92.019">
  <g id="logo" transform="translate(-222 -51.981)">
    <text id="PHOENIX_INFORMÁTICA_" data-name="PHOENIX INFORMÁTICA
" transform="translate(222 94)" fill="#fff" font-size="36" font-family="Arial-BoldMT, Arial" font-weight="700"><tspan x="0" y="0">PHOENIX INFORMÁTICA</tspan><tspan x="0" y="42"></tspan></text>
    <g id="phoenix-sky-harbor" transform="translate(466 -282)">
      <path id="Caminho_2" data-name="Caminho 2" d="M242.147,318.276c-2.532,1.529-5.208,3.918-6.116,6.881-1.051,3.393-1.433,6.737.956,10.608.812,1.481,3.966,3.775,5.973,4.969a5.589,5.589,0,0,1-3.727-.526c-3.488-1.481-6.546-4.73-7.072-8.6a12.723,12.723,0,0,1,2.867-8.983,13.744,13.744,0,0,1,7.12-4.348Zm27.236,6.737a26.966,26.966,0,0,0-13.092-7.215v.1a26.121,26.121,0,0,1,9.8,7.12c2.484,2.867,4.778,10.225,3.822,13.809a34.409,34.409,0,0,0-.717-3.393,18.182,18.182,0,0,0-5.734-10.369,11.275,11.275,0,0,0-2.676-1.864,21.527,21.527,0,0,1,5.256,9.366c1.29,4.826-.956,9.413-4.778,12.185a5.236,5.236,0,0,1-2.58,1,10.972,10.972,0,0,0,1.863-5.543c.335-2.724-.43-5.5-.478-8.123.335-1.386,2.58-2.1,2.58-2.1a20.9,20.9,0,0,1-4.014-1.195c-.286-.191-4.013-2.389-5.973-3.727-1.338-.908-2.676-1.864-4.491-1.72-1.481.191-1.863,1.816-2.389,2.963-2.485.239-5.017,1.242-6.308,3.583a5.436,5.436,0,0,0-.573,3.249,8.825,8.825,0,0,1,2.867-2.294,5.591,5.591,0,0,1,7.311,6.164,7.473,7.473,0,0,1-5.543,5.734,11.76,11.76,0,0,1-10.99-5.065,13.114,13.114,0,0,1-2.2-10.7,10.739,10.739,0,0,0-2.055,5.829c-.478,2.15.573,6.642.573,6.642,1.481,6.642,7.55,11.229,7.645,11.467-.382-.1-7.6-2.1-9.843-11.038-.287-1.195-.574-2.341-.765-3.488a22.023,22.023,0,0,0-.43,8.744c.717,5.638,4.492,10.7,6.259,12.519,1.29,1.72,5.4,4.109,6.929,4.778,10.034,4.444,19.878-1.147,19.878-1.147a29.678,29.678,0,0,0,3.488-1.816,19.075,19.075,0,0,1-8.744,5.256,23.709,23.709,0,0,1-9.557.621,40.513,40.513,0,0,1-4.2-.621,17.6,17.6,0,0,0,7.55,2.628c10.751,1.863,19.734-6.116,19.734-6.116A26.165,26.165,0,0,0,275.308,348c2.2-8.362-.573-16.867-5.925-22.984Zm-20.977,1.481a.612.612,0,0,1-.191-.764,1.242,1.242,0,0,1,1.386-.239,2.845,2.845,0,0,1,1.625,1.529,5.046,5.046,0,0,1,.286.908,8.733,8.733,0,0,0-3.106-1.433Z" transform="translate(-35.47 16.183)" fill="#df921e" fill-rule="evenodd"/>
    </g>
  </g>
</svg>
